<mxfile host="app.diagrams.net" modified="2024-07-16T11:38:58.704Z" agent="Mozilla/5.0 (Windows NT 10.0; Win64; x64) AppleWebKit/537.36 (KHTML, like Gecko) Chrome/126.0.0.0 Safari/537.36" etag="LNb_D_JfGDmBVLbccale" version="24.6.5" type="device">
  <diagram id="R2lEEEUBdFMjLlhIrx00" name="Page-1">
    <mxGraphModel dx="1753" dy="676" grid="1" gridSize="10" guides="1" tooltips="1" connect="1" arrows="1" fold="1" page="1" pageScale="1" pageWidth="850" pageHeight="1100" math="0" shadow="0" extFonts="Permanent Marker^https://fonts.googleapis.com/css?family=Permanent+Marker">
      <root>
        <mxCell id="0" />
        <mxCell id="1" parent="0" />
        <mxCell id="i9SwY3PniBwfGw9yr1k6-35" value="&lt;span style=&quot;font-size: 16px;&quot;&gt;managercode&lt;/span&gt;" style="ellipse;whiteSpace=wrap;html=1;align=center;" vertex="1" parent="1">
          <mxGeometry x="400" y="1080" width="100" height="40" as="geometry" />
        </mxCell>
        <mxCell id="i9SwY3PniBwfGw9yr1k6-21" style="edgeStyle=none;rounded=0;orthogonalLoop=1;jettySize=auto;html=1;entryX=0;entryY=0.5;entryDx=0;entryDy=0;endArrow=none;endFill=0;" edge="1" parent="1" source="i9SwY3PniBwfGw9yr1k6-1" target="i9SwY3PniBwfGw9yr1k6-23">
          <mxGeometry relative="1" as="geometry">
            <mxPoint x="570" y="880" as="targetPoint" />
          </mxGeometry>
        </mxCell>
        <mxCell id="i9SwY3PniBwfGw9yr1k6-63" style="edgeStyle=none;rounded=0;orthogonalLoop=1;jettySize=auto;html=1;entryX=0.5;entryY=1;entryDx=0;entryDy=0;endArrow=none;endFill=0;startArrow=none;startFill=0;" edge="1" parent="1" source="i9SwY3PniBwfGw9yr1k6-1" target="i9SwY3PniBwfGw9yr1k6-62">
          <mxGeometry relative="1" as="geometry" />
        </mxCell>
        <mxCell id="i9SwY3PniBwfGw9yr1k6-1" value="Employee" style="whiteSpace=wrap;html=1;align=center;" vertex="1" parent="1">
          <mxGeometry x="425" y="860" width="100" height="40" as="geometry" />
        </mxCell>
        <mxCell id="i9SwY3PniBwfGw9yr1k6-9" style="edgeStyle=none;rounded=0;orthogonalLoop=1;jettySize=auto;html=1;entryX=0;entryY=0.5;entryDx=0;entryDy=0;endArrow=none;endFill=0;" edge="1" parent="1" source="i9SwY3PniBwfGw9yr1k6-3" target="i9SwY3PniBwfGw9yr1k6-8">
          <mxGeometry relative="1" as="geometry" />
        </mxCell>
        <mxCell id="i9SwY3PniBwfGw9yr1k6-12" style="edgeStyle=none;rounded=0;orthogonalLoop=1;jettySize=auto;html=1;entryX=0.5;entryY=0;entryDx=0;entryDy=0;endArrow=none;endFill=0;" edge="1" parent="1" source="i9SwY3PniBwfGw9yr1k6-3" target="i9SwY3PniBwfGw9yr1k6-11">
          <mxGeometry relative="1" as="geometry" />
        </mxCell>
        <mxCell id="i9SwY3PniBwfGw9yr1k6-15" style="edgeStyle=none;rounded=0;orthogonalLoop=1;jettySize=auto;html=1;entryX=0.5;entryY=1;entryDx=0;entryDy=0;endArrow=none;endFill=0;" edge="1" parent="1" source="i9SwY3PniBwfGw9yr1k6-3" target="i9SwY3PniBwfGw9yr1k6-14">
          <mxGeometry relative="1" as="geometry" />
        </mxCell>
        <mxCell id="i9SwY3PniBwfGw9yr1k6-3" value="Department" style="whiteSpace=wrap;html=1;align=center;" vertex="1" parent="1">
          <mxGeometry x="90" y="860" width="100" height="40" as="geometry" />
        </mxCell>
        <mxCell id="i9SwY3PniBwfGw9yr1k6-4" value="Location" style="whiteSpace=wrap;html=1;align=center;" vertex="1" parent="1">
          <mxGeometry x="90" y="1080" width="100" height="40" as="geometry" />
        </mxCell>
        <mxCell id="i9SwY3PniBwfGw9yr1k6-5" value="Project" style="whiteSpace=wrap;html=1;align=center;" vertex="1" parent="1">
          <mxGeometry x="90" y="620" width="100" height="40" as="geometry" />
        </mxCell>
        <mxCell id="i9SwY3PniBwfGw9yr1k6-7" value="Relative" style="shape=ext;margin=3;double=1;whiteSpace=wrap;html=1;align=center;" vertex="1" parent="1">
          <mxGeometry x="730" y="860" width="100" height="40" as="geometry" />
        </mxCell>
        <mxCell id="i9SwY3PniBwfGw9yr1k6-10" style="edgeStyle=none;rounded=0;orthogonalLoop=1;jettySize=auto;html=1;entryX=0;entryY=0.5;entryDx=0;entryDy=0;endArrow=ERoneToMany;endFill=0;" edge="1" parent="1" source="i9SwY3PniBwfGw9yr1k6-8" target="i9SwY3PniBwfGw9yr1k6-1">
          <mxGeometry relative="1" as="geometry" />
        </mxCell>
        <mxCell id="i9SwY3PniBwfGw9yr1k6-8" value="manages" style="shape=rhombus;perimeter=rhombusPerimeter;whiteSpace=wrap;html=1;align=center;" vertex="1" parent="1">
          <mxGeometry x="250" y="850" width="120" height="60" as="geometry" />
        </mxCell>
        <mxCell id="i9SwY3PniBwfGw9yr1k6-13" style="edgeStyle=none;rounded=0;orthogonalLoop=1;jettySize=auto;html=1;entryX=0.5;entryY=0;entryDx=0;entryDy=0;endArrow=ERoneToMany;endFill=0;" edge="1" parent="1" source="i9SwY3PniBwfGw9yr1k6-11" target="i9SwY3PniBwfGw9yr1k6-4">
          <mxGeometry relative="1" as="geometry" />
        </mxCell>
        <mxCell id="i9SwY3PniBwfGw9yr1k6-11" value="has" style="shape=rhombus;perimeter=rhombusPerimeter;whiteSpace=wrap;html=1;align=center;" vertex="1" parent="1">
          <mxGeometry x="80" y="960" width="120" height="60" as="geometry" />
        </mxCell>
        <mxCell id="i9SwY3PniBwfGw9yr1k6-16" style="edgeStyle=none;rounded=0;orthogonalLoop=1;jettySize=auto;html=1;entryX=0.5;entryY=1;entryDx=0;entryDy=0;endArrow=ERoneToMany;endFill=0;" edge="1" parent="1" source="i9SwY3PniBwfGw9yr1k6-14" target="i9SwY3PniBwfGw9yr1k6-5">
          <mxGeometry relative="1" as="geometry" />
        </mxCell>
        <mxCell id="i9SwY3PniBwfGw9yr1k6-14" value="manages" style="shape=rhombus;perimeter=rhombusPerimeter;whiteSpace=wrap;html=1;align=center;" vertex="1" parent="1">
          <mxGeometry x="80" y="730" width="120" height="60" as="geometry" />
        </mxCell>
        <mxCell id="i9SwY3PniBwfGw9yr1k6-18" style="edgeStyle=none;rounded=0;orthogonalLoop=1;jettySize=auto;html=1;exitX=0;exitY=0.5;exitDx=0;exitDy=0;entryX=1;entryY=0.5;entryDx=0;entryDy=0;endArrow=ERoneToMany;endFill=0;" edge="1" parent="1" source="i9SwY3PniBwfGw9yr1k6-17" target="i9SwY3PniBwfGw9yr1k6-5">
          <mxGeometry relative="1" as="geometry" />
        </mxCell>
        <mxCell id="i9SwY3PniBwfGw9yr1k6-19" style="edgeStyle=none;rounded=0;orthogonalLoop=1;jettySize=auto;html=1;exitX=1;exitY=0.5;exitDx=0;exitDy=0;entryX=0;entryY=0;entryDx=0;entryDy=0;endArrow=ERoneToMany;endFill=0;" edge="1" parent="1" source="i9SwY3PniBwfGw9yr1k6-17" target="i9SwY3PniBwfGw9yr1k6-1">
          <mxGeometry relative="1" as="geometry" />
        </mxCell>
        <mxCell id="i9SwY3PniBwfGw9yr1k6-17" value="&lt;span style=&quot;text-indent: -24px;&quot;&gt;participates in&lt;/span&gt;" style="shape=rhombus;perimeter=rhombusPerimeter;whiteSpace=wrap;html=1;align=center;" vertex="1" parent="1">
          <mxGeometry x="250" y="730" width="120" height="60" as="geometry" />
        </mxCell>
        <mxCell id="i9SwY3PniBwfGw9yr1k6-22" style="edgeStyle=none;rounded=0;orthogonalLoop=1;jettySize=auto;html=1;entryX=0;entryY=0.5;entryDx=0;entryDy=0;endArrow=ERoneToMany;endFill=0;exitX=1;exitY=0.5;exitDx=0;exitDy=0;" edge="1" parent="1" source="i9SwY3PniBwfGw9yr1k6-23" target="i9SwY3PniBwfGw9yr1k6-7">
          <mxGeometry relative="1" as="geometry">
            <mxPoint x="690" y="880" as="sourcePoint" />
          </mxGeometry>
        </mxCell>
        <mxCell id="i9SwY3PniBwfGw9yr1k6-23" value="has" style="shape=rhombus;double=1;perimeter=rhombusPerimeter;whiteSpace=wrap;html=1;align=center;" vertex="1" parent="1">
          <mxGeometry x="570" y="850" width="120" height="60" as="geometry" />
        </mxCell>
        <mxCell id="i9SwY3PniBwfGw9yr1k6-26" style="edgeStyle=none;rounded=0;orthogonalLoop=1;jettySize=auto;html=1;entryX=0.5;entryY=1;entryDx=0;entryDy=0;endArrow=none;endFill=0;" edge="1" parent="1" source="i9SwY3PniBwfGw9yr1k6-25" target="i9SwY3PniBwfGw9yr1k6-1">
          <mxGeometry relative="1" as="geometry" />
        </mxCell>
        <mxCell id="i9SwY3PniBwfGw9yr1k6-28" style="edgeStyle=none;rounded=0;orthogonalLoop=1;jettySize=auto;html=1;entryX=0.5;entryY=1;entryDx=0;entryDy=0;endArrow=none;endFill=0;" edge="1" parent="1" source="i9SwY3PniBwfGw9yr1k6-27" target="i9SwY3PniBwfGw9yr1k6-1">
          <mxGeometry relative="1" as="geometry" />
        </mxCell>
        <mxCell id="i9SwY3PniBwfGw9yr1k6-30" style="edgeStyle=none;rounded=0;orthogonalLoop=1;jettySize=auto;html=1;entryX=0.5;entryY=1;entryDx=0;entryDy=0;endArrow=none;endFill=0;" edge="1" parent="1" source="i9SwY3PniBwfGw9yr1k6-29" target="i9SwY3PniBwfGw9yr1k6-1">
          <mxGeometry relative="1" as="geometry" />
        </mxCell>
        <mxCell id="i9SwY3PniBwfGw9yr1k6-32" style="edgeStyle=none;rounded=0;orthogonalLoop=1;jettySize=auto;html=1;entryX=0.5;entryY=1;entryDx=0;entryDy=0;endArrow=none;endFill=0;" edge="1" parent="1" source="i9SwY3PniBwfGw9yr1k6-31" target="i9SwY3PniBwfGw9yr1k6-1">
          <mxGeometry relative="1" as="geometry" />
        </mxCell>
        <mxCell id="i9SwY3PniBwfGw9yr1k6-34" style="edgeStyle=none;rounded=0;orthogonalLoop=1;jettySize=auto;html=1;entryX=0.5;entryY=1;entryDx=0;entryDy=0;endArrow=none;endFill=0;" edge="1" parent="1" source="i9SwY3PniBwfGw9yr1k6-33" target="i9SwY3PniBwfGw9yr1k6-1">
          <mxGeometry relative="1" as="geometry" />
        </mxCell>
        <mxCell id="i9SwY3PniBwfGw9yr1k6-33" value="&lt;span style=&quot;font-size: 16px;&quot;&gt;gender&lt;/span&gt;" style="ellipse;whiteSpace=wrap;html=1;align=center;" vertex="1" parent="1">
          <mxGeometry x="550" y="980" width="100" height="40" as="geometry" />
        </mxCell>
        <mxCell id="i9SwY3PniBwfGw9yr1k6-36" style="edgeStyle=none;rounded=0;orthogonalLoop=1;jettySize=auto;html=1;entryX=0.5;entryY=1;entryDx=0;entryDy=0;endArrow=none;endFill=0;" edge="1" parent="1" source="i9SwY3PniBwfGw9yr1k6-35" target="i9SwY3PniBwfGw9yr1k6-1">
          <mxGeometry relative="1" as="geometry" />
        </mxCell>
        <mxCell id="i9SwY3PniBwfGw9yr1k6-38" style="edgeStyle=none;rounded=0;orthogonalLoop=1;jettySize=auto;html=1;entryX=0.5;entryY=1;entryDx=0;entryDy=0;endArrow=none;endFill=0;" edge="1" parent="1" source="i9SwY3PniBwfGw9yr1k6-37" target="i9SwY3PniBwfGw9yr1k6-1">
          <mxGeometry relative="1" as="geometry" />
        </mxCell>
        <mxCell id="i9SwY3PniBwfGw9yr1k6-37" value="&lt;span style=&quot;font-size: 16px;&quot;&gt;departmentcode&lt;/span&gt;" style="ellipse;whiteSpace=wrap;html=1;align=center;" vertex="1" parent="1">
          <mxGeometry x="540" y="1070" width="125" height="60" as="geometry" />
        </mxCell>
        <mxCell id="i9SwY3PniBwfGw9yr1k6-27" value="&lt;span style=&quot;font-size:12.0pt;line-height:107%;&lt;br/&gt;font-family:&amp;quot;Times New Roman&amp;quot;,serif;mso-fareast-font-family:Aptos;mso-fareast-theme-font:&lt;br/&gt;minor-latin;mso-bidi-font-family:Calibri;mso-ansi-language:EN-US;mso-fareast-language:&lt;br/&gt;EN-US;mso-bidi-language:AR-SA&quot;&gt;fullname&lt;/span&gt;" style="ellipse;whiteSpace=wrap;html=1;align=center;" vertex="1" parent="1">
          <mxGeometry x="440" y="950" width="100" height="40" as="geometry" />
        </mxCell>
        <mxCell id="i9SwY3PniBwfGw9yr1k6-31" value="&lt;span style=&quot;font-size: 16px;&quot;&gt;address&lt;/span&gt;" style="ellipse;whiteSpace=wrap;html=1;align=center;" vertex="1" parent="1">
          <mxGeometry x="470" y="1020" width="100" height="40" as="geometry" />
        </mxCell>
        <mxCell id="i9SwY3PniBwfGw9yr1k6-40" style="edgeStyle=none;rounded=0;orthogonalLoop=1;jettySize=auto;html=1;entryX=0.5;entryY=1;entryDx=0;entryDy=0;endArrow=none;endFill=0;" edge="1" parent="1" source="i9SwY3PniBwfGw9yr1k6-39" target="i9SwY3PniBwfGw9yr1k6-1">
          <mxGeometry relative="1" as="geometry" />
        </mxCell>
        <mxCell id="i9SwY3PniBwfGw9yr1k6-39" value="&lt;span style=&quot;font-size: 16px;&quot;&gt;salarytype&lt;/span&gt;" style="ellipse;whiteSpace=wrap;html=1;align=center;" vertex="1" parent="1">
          <mxGeometry x="280" y="1080" width="100" height="40" as="geometry" />
        </mxCell>
        <mxCell id="i9SwY3PniBwfGw9yr1k6-29" value="&lt;span style=&quot;font-size: 16px;&quot;&gt;dateofbirth&lt;/span&gt;" style="ellipse;whiteSpace=wrap;html=1;align=center;" vertex="1" parent="1">
          <mxGeometry x="350" y="1020" width="100" height="40" as="geometry" />
        </mxCell>
        <mxCell id="i9SwY3PniBwfGw9yr1k6-25" value="employeecode" style="ellipse;whiteSpace=wrap;html=1;align=center;fontStyle=4;" vertex="1" parent="1">
          <mxGeometry x="330" y="950" width="100" height="40" as="geometry" />
        </mxCell>
        <mxCell id="i9SwY3PniBwfGw9yr1k6-42" style="edgeStyle=none;rounded=0;orthogonalLoop=1;jettySize=auto;html=1;entryX=0;entryY=0.5;entryDx=0;entryDy=0;endArrow=none;endFill=0;" edge="1" parent="1" source="i9SwY3PniBwfGw9yr1k6-41" target="i9SwY3PniBwfGw9yr1k6-3">
          <mxGeometry relative="1" as="geometry" />
        </mxCell>
        <mxCell id="i9SwY3PniBwfGw9yr1k6-41" value="departmentcode" style="ellipse;whiteSpace=wrap;html=1;align=center;fontStyle=4;" vertex="1" parent="1">
          <mxGeometry x="-120" y="860" width="100" height="40" as="geometry" />
        </mxCell>
        <mxCell id="i9SwY3PniBwfGw9yr1k6-46" style="edgeStyle=none;rounded=0;orthogonalLoop=1;jettySize=auto;html=1;entryX=0;entryY=0.5;entryDx=0;entryDy=0;endArrow=none;endFill=0;" edge="1" parent="1" source="i9SwY3PniBwfGw9yr1k6-44" target="i9SwY3PniBwfGw9yr1k6-3">
          <mxGeometry relative="1" as="geometry" />
        </mxCell>
        <mxCell id="i9SwY3PniBwfGw9yr1k6-44" value="roomname" style="ellipse;whiteSpace=wrap;html=1;align=center;" vertex="1" parent="1">
          <mxGeometry x="-120" y="910" width="100" height="40" as="geometry" />
        </mxCell>
        <mxCell id="i9SwY3PniBwfGw9yr1k6-47" style="edgeStyle=none;rounded=0;orthogonalLoop=1;jettySize=auto;html=1;entryX=0;entryY=0.5;entryDx=0;entryDy=0;endArrow=none;endFill=0;" edge="1" parent="1" source="i9SwY3PniBwfGw9yr1k6-45" target="i9SwY3PniBwfGw9yr1k6-3">
          <mxGeometry relative="1" as="geometry" />
        </mxCell>
        <mxCell id="i9SwY3PniBwfGw9yr1k6-45" value="managercode" style="ellipse;whiteSpace=wrap;html=1;align=center;" vertex="1" parent="1">
          <mxGeometry x="-120" y="960" width="100" height="40" as="geometry" />
        </mxCell>
        <mxCell id="i9SwY3PniBwfGw9yr1k6-49" style="edgeStyle=none;rounded=0;orthogonalLoop=1;jettySize=auto;html=1;entryX=0.5;entryY=0;entryDx=0;entryDy=0;endArrow=none;endFill=0;" edge="1" parent="1" source="i9SwY3PniBwfGw9yr1k6-48" target="i9SwY3PniBwfGw9yr1k6-5">
          <mxGeometry relative="1" as="geometry" />
        </mxCell>
        <mxCell id="i9SwY3PniBwfGw9yr1k6-48" value="project code" style="ellipse;whiteSpace=wrap;html=1;align=center;fontStyle=4;" vertex="1" parent="1">
          <mxGeometry x="-80" y="560" width="100" height="40" as="geometry" />
        </mxCell>
        <mxCell id="i9SwY3PniBwfGw9yr1k6-51" style="edgeStyle=none;rounded=0;orthogonalLoop=1;jettySize=auto;html=1;entryX=0.5;entryY=0;entryDx=0;entryDy=0;endArrow=none;endFill=0;" edge="1" parent="1" source="i9SwY3PniBwfGw9yr1k6-50" target="i9SwY3PniBwfGw9yr1k6-5">
          <mxGeometry relative="1" as="geometry" />
        </mxCell>
        <mxCell id="i9SwY3PniBwfGw9yr1k6-50" value="projectname" style="ellipse;whiteSpace=wrap;html=1;align=center;fontStyle=0;" vertex="1" parent="1">
          <mxGeometry y="500" width="100" height="40" as="geometry" />
        </mxCell>
        <mxCell id="i9SwY3PniBwfGw9yr1k6-53" style="edgeStyle=none;rounded=0;orthogonalLoop=1;jettySize=auto;html=1;entryX=0.5;entryY=0;entryDx=0;entryDy=0;endArrow=none;endFill=0;" edge="1" parent="1" source="i9SwY3PniBwfGw9yr1k6-52" target="i9SwY3PniBwfGw9yr1k6-5">
          <mxGeometry relative="1" as="geometry" />
        </mxCell>
        <mxCell id="i9SwY3PniBwfGw9yr1k6-52" value="location" style="ellipse;whiteSpace=wrap;html=1;align=center;fontStyle=0;" vertex="1" parent="1">
          <mxGeometry x="110" y="460" width="100" height="40" as="geometry" />
        </mxCell>
        <mxCell id="i9SwY3PniBwfGw9yr1k6-55" style="edgeStyle=none;rounded=0;orthogonalLoop=1;jettySize=auto;html=1;entryX=0.5;entryY=0;entryDx=0;entryDy=0;endArrow=none;endFill=0;" edge="1" parent="1" source="i9SwY3PniBwfGw9yr1k6-54" target="i9SwY3PniBwfGw9yr1k6-5">
          <mxGeometry relative="1" as="geometry" />
        </mxCell>
        <mxCell id="i9SwY3PniBwfGw9yr1k6-54" value="departmentcode" style="ellipse;whiteSpace=wrap;html=1;align=center;fontStyle=0;" vertex="1" parent="1">
          <mxGeometry x="220" y="520" width="100" height="40" as="geometry" />
        </mxCell>
        <mxCell id="i9SwY3PniBwfGw9yr1k6-57" style="edgeStyle=none;rounded=0;orthogonalLoop=1;jettySize=auto;html=1;entryX=0.5;entryY=0;entryDx=0;entryDy=0;endArrow=none;endFill=0;" edge="1" parent="1" source="i9SwY3PniBwfGw9yr1k6-56" target="i9SwY3PniBwfGw9yr1k6-7">
          <mxGeometry relative="1" as="geometry" />
        </mxCell>
        <mxCell id="i9SwY3PniBwfGw9yr1k6-56" value="name" style="ellipse;whiteSpace=wrap;html=1;align=center;" vertex="1" parent="1">
          <mxGeometry x="770" y="750" width="100" height="40" as="geometry" />
        </mxCell>
        <mxCell id="i9SwY3PniBwfGw9yr1k6-59" style="edgeStyle=none;rounded=0;orthogonalLoop=1;jettySize=auto;html=1;entryX=0.5;entryY=0;entryDx=0;entryDy=0;endArrow=none;endFill=0;" edge="1" parent="1" source="i9SwY3PniBwfGw9yr1k6-58" target="i9SwY3PniBwfGw9yr1k6-7">
          <mxGeometry relative="1" as="geometry" />
        </mxCell>
        <mxCell id="i9SwY3PniBwfGw9yr1k6-58" value="dateofbirth" style="ellipse;whiteSpace=wrap;html=1;align=center;" vertex="1" parent="1">
          <mxGeometry x="870" y="790" width="100" height="40" as="geometry" />
        </mxCell>
        <mxCell id="i9SwY3PniBwfGw9yr1k6-61" style="edgeStyle=none;rounded=0;orthogonalLoop=1;jettySize=auto;html=1;entryX=0.5;entryY=0;entryDx=0;entryDy=0;endArrow=none;endFill=0;" edge="1" parent="1" source="i9SwY3PniBwfGw9yr1k6-60" target="i9SwY3PniBwfGw9yr1k6-7">
          <mxGeometry relative="1" as="geometry" />
        </mxCell>
        <mxCell id="i9SwY3PniBwfGw9yr1k6-60" value="relationship" style="ellipse;whiteSpace=wrap;html=1;align=center;" vertex="1" parent="1">
          <mxGeometry x="650" y="750" width="100" height="40" as="geometry" />
        </mxCell>
        <mxCell id="i9SwY3PniBwfGw9yr1k6-66" style="edgeStyle=orthogonalEdgeStyle;rounded=0;orthogonalLoop=1;jettySize=auto;html=1;entryX=1;entryY=0;entryDx=0;entryDy=0;exitX=0.5;exitY=0;exitDx=0;exitDy=0;endArrow=none;endFill=0;" edge="1" parent="1" source="i9SwY3PniBwfGw9yr1k6-62" target="i9SwY3PniBwfGw9yr1k6-1">
          <mxGeometry relative="1" as="geometry">
            <mxPoint x="540" y="750" as="sourcePoint" />
            <Array as="points">
              <mxPoint x="475" y="650" />
              <mxPoint x="590" y="650" />
              <mxPoint x="590" y="860" />
            </Array>
          </mxGeometry>
        </mxCell>
        <mxCell id="i9SwY3PniBwfGw9yr1k6-67" value="manager" style="edgeLabel;html=1;align=center;verticalAlign=middle;resizable=0;points=[];rotation=90;" vertex="1" connectable="0" parent="i9SwY3PniBwfGw9yr1k6-66">
          <mxGeometry x="0.193" y="2" relative="1" as="geometry">
            <mxPoint x="8" y="1" as="offset" />
          </mxGeometry>
        </mxCell>
        <mxCell id="i9SwY3PniBwfGw9yr1k6-62" value="manages" style="shape=rhombus;perimeter=rhombusPerimeter;whiteSpace=wrap;html=1;align=center;" vertex="1" parent="1">
          <mxGeometry x="415" y="720" width="120" height="60" as="geometry" />
        </mxCell>
      </root>
    </mxGraphModel>
  </diagram>
</mxfile>
